<mxfile host="app.diagrams.net" modified="2023-11-18T06:43:09.656Z" agent="Mozilla/5.0 (Windows NT 10.0; Win64; x64) AppleWebKit/537.36 (KHTML, like Gecko) Chrome/119.0.0.0 Safari/537.36 Edg/119.0.0.0" etag="wpLJBdr6xhlcWIaLmsbl" version="22.1.3" type="device">
  <diagram name="Page-1" id="gSQ4Rhm3VutCiDBHGc-_">
    <mxGraphModel dx="832" dy="460" grid="1" gridSize="10" guides="1" tooltips="1" connect="1" arrows="1" fold="1" page="1" pageScale="1" pageWidth="850" pageHeight="1100" math="0" shadow="0">
      <root>
        <mxCell id="0" />
        <mxCell id="1" parent="0" />
        <mxCell id="-REs8MrOoYfWSu_G0Omo-25" value="" style="verticalLabelPosition=bottom;shadow=0;dashed=0;align=center;html=1;verticalAlign=top;strokeWidth=1;shape=mxgraph.mockup.graphics.simpleIcon;strokeColor=#999999;" parent="1" vertex="1">
          <mxGeometry x="140" y="120" width="400" height="220" as="geometry" />
        </mxCell>
        <mxCell id="-REs8MrOoYfWSu_G0Omo-37" value="" style="verticalLabelPosition=bottom;shadow=0;dashed=0;align=center;html=1;verticalAlign=top;strokeWidth=1;shape=mxgraph.mockup.graphics.simpleIcon;strokeColor=#999999;" parent="1" vertex="1">
          <mxGeometry x="737" y="920" width="28" height="20" as="geometry" />
        </mxCell>
        <mxCell id="-REs8MrOoYfWSu_G0Omo-59" value="l" style="verticalLabelPosition=bottom;verticalAlign=top;html=1;shape=mxgraph.basic.patternFillRect;fillStyle=grid;step=5;fillStrokeWidth=0.2;fillStrokeColor=#dddddd;" parent="1" vertex="1">
          <mxGeometry x="40" y="900" width="760" height="60" as="geometry" />
        </mxCell>
        <mxCell id="-REs8MrOoYfWSu_G0Omo-60" value="" style="verticalLabelPosition=bottom;shadow=0;dashed=0;align=center;html=1;verticalAlign=top;strokeWidth=1;shape=mxgraph.mockup.graphics.simpleIcon;strokeColor=#999999;" parent="1" vertex="1">
          <mxGeometry x="750" y="916.25" width="35" height="27.5" as="geometry" />
        </mxCell>
        <mxCell id="-REs8MrOoYfWSu_G0Omo-61" value="" style="verticalLabelPosition=bottom;shadow=0;dashed=0;align=center;html=1;verticalAlign=top;strokeWidth=1;shape=mxgraph.mockup.graphics.simpleIcon;strokeColor=#999999;" parent="1" vertex="1">
          <mxGeometry x="670" y="916.25" width="35" height="27.5" as="geometry" />
        </mxCell>
        <mxCell id="-REs8MrOoYfWSu_G0Omo-62" value="" style="verticalLabelPosition=bottom;shadow=0;dashed=0;align=center;html=1;verticalAlign=top;strokeWidth=1;shape=mxgraph.mockup.graphics.simpleIcon;strokeColor=#999999;" parent="1" vertex="1">
          <mxGeometry x="710" y="916.25" width="35" height="27.5" as="geometry" />
        </mxCell>
        <UserObject label="Home" placeholders="1" name="Variable" id="4HuXosF3qvfxL-lSvG_7-2">
          <mxCell style="text;html=1;strokeColor=none;fillColor=none;align=center;verticalAlign=middle;whiteSpace=wrap;overflow=hidden;" parent="1" vertex="1">
            <mxGeometry x="420" y="56" width="80" height="20" as="geometry" />
          </mxCell>
        </UserObject>
        <UserObject label="Contact" placeholders="1" name="Variable" id="4HuXosF3qvfxL-lSvG_7-3">
          <mxCell style="text;html=1;strokeColor=none;fillColor=none;align=center;verticalAlign=middle;whiteSpace=wrap;overflow=hidden;" parent="1" vertex="1">
            <mxGeometry x="647.5" y="56" width="80" height="20" as="geometry" />
          </mxCell>
        </UserObject>
        <UserObject label="Lorem" placeholders="1" name="Variable" id="4HuXosF3qvfxL-lSvG_7-5">
          <mxCell style="text;html=1;strokeColor=none;fillColor=none;align=center;verticalAlign=middle;whiteSpace=wrap;overflow=hidden;" parent="1" vertex="1">
            <mxGeometry x="530" y="56" width="80" height="20" as="geometry" />
          </mxCell>
        </UserObject>
        <UserObject label="Lorem Ipsum 2023" placeholders="1" name="Variable" id="4HuXosF3qvfxL-lSvG_7-8">
          <mxCell style="text;html=1;strokeColor=none;fillColor=none;align=center;verticalAlign=middle;whiteSpace=wrap;overflow=hidden;" parent="1" vertex="1">
            <mxGeometry x="30" y="923.75" width="180" height="20" as="geometry" />
          </mxCell>
        </UserObject>
        <UserObject label="Dolor sit" placeholders="1" name="Variable" id="4HuXosF3qvfxL-lSvG_7-9">
          <mxCell style="text;html=1;strokeColor=none;fillColor=none;align=center;verticalAlign=middle;whiteSpace=wrap;overflow=hidden;" parent="1" vertex="1">
            <mxGeometry x="210" y="923.75" width="180" height="20" as="geometry" />
          </mxCell>
        </UserObject>
        <UserObject label="Amet et" placeholders="1" name="Variable" id="4HuXosF3qvfxL-lSvG_7-10">
          <mxCell style="text;html=1;strokeColor=none;fillColor=none;align=center;verticalAlign=middle;whiteSpace=wrap;overflow=hidden;" parent="1" vertex="1">
            <mxGeometry x="390" y="923.75" width="180" height="20" as="geometry" />
          </mxCell>
        </UserObject>
        <mxCell id="4HuXosF3qvfxL-lSvG_7-11" value="" style="ellipse;whiteSpace=wrap;html=1;aspect=fixed;" parent="1" vertex="1">
          <mxGeometry x="120" y="46" width="30" height="30" as="geometry" />
        </mxCell>
        <mxCell id="4HuXosF3qvfxL-lSvG_7-19" style="edgeStyle=orthogonalEdgeStyle;rounded=0;orthogonalLoop=1;jettySize=auto;html=1;exitX=0.5;exitY=0;exitDx=0;exitDy=0;entryX=0.25;entryY=0;entryDx=0;entryDy=0;" parent="1" source="4HuXosF3qvfxL-lSvG_7-2" target="4HuXosF3qvfxL-lSvG_7-2" edge="1">
          <mxGeometry relative="1" as="geometry" />
        </mxCell>
        <mxCell id="iUBv5-mRjrPnGJeJ_ugk-6" value="" style="verticalLabelPosition=bottom;shadow=0;dashed=0;align=center;html=1;verticalAlign=top;strokeWidth=1;shape=mxgraph.mockup.graphics.simpleIcon;strokeColor=#999999;" vertex="1" parent="1">
          <mxGeometry x="140" y="440" width="170" height="150" as="geometry" />
        </mxCell>
        <mxCell id="iUBv5-mRjrPnGJeJ_ugk-7" value="" style="rounded=0;whiteSpace=wrap;html=1;" vertex="1" parent="1">
          <mxGeometry x="400" y="160" width="300" height="130" as="geometry" />
        </mxCell>
        <mxCell id="iUBv5-mRjrPnGJeJ_ugk-23" value="&lt;h1&gt;&lt;br&gt;&lt;/h1&gt;&lt;p&gt;Lorem ipsum dolor sit amet, consectetur adipisicing elit, sed do eiusmod tempor incididunt ut labore et dolore magna aliqua.&lt;/p&gt;" style="text;html=1;strokeColor=none;fillColor=none;spacing=5;spacingTop=-20;whiteSpace=wrap;overflow=hidden;rounded=0;" vertex="1" parent="1">
          <mxGeometry x="150" y="320" width="560" height="120" as="geometry" />
        </mxCell>
        <mxCell id="iUBv5-mRjrPnGJeJ_ugk-25" value="" style="verticalLabelPosition=bottom;shadow=0;dashed=0;align=center;html=1;verticalAlign=top;strokeWidth=1;shape=mxgraph.mockup.graphics.simpleIcon;strokeColor=#999999;" vertex="1" parent="1">
          <mxGeometry x="557.5" y="680" width="170" height="150" as="geometry" />
        </mxCell>
        <mxCell id="iUBv5-mRjrPnGJeJ_ugk-26" value="" style="verticalLabelPosition=bottom;shadow=0;dashed=0;align=center;html=1;verticalAlign=top;strokeWidth=1;shape=mxgraph.mockup.graphics.simpleIcon;strokeColor=#999999;" vertex="1" parent="1">
          <mxGeometry x="360" y="680" width="170" height="150" as="geometry" />
        </mxCell>
        <mxCell id="iUBv5-mRjrPnGJeJ_ugk-27" value="" style="verticalLabelPosition=bottom;shadow=0;dashed=0;align=center;html=1;verticalAlign=top;strokeWidth=1;shape=mxgraph.mockup.graphics.simpleIcon;strokeColor=#999999;" vertex="1" parent="1">
          <mxGeometry x="355" y="440" width="170" height="150" as="geometry" />
        </mxCell>
        <mxCell id="iUBv5-mRjrPnGJeJ_ugk-28" value="" style="verticalLabelPosition=bottom;shadow=0;dashed=0;align=center;html=1;verticalAlign=top;strokeWidth=1;shape=mxgraph.mockup.graphics.simpleIcon;strokeColor=#999999;" vertex="1" parent="1">
          <mxGeometry x="557.5" y="440" width="170" height="150" as="geometry" />
        </mxCell>
        <mxCell id="iUBv5-mRjrPnGJeJ_ugk-29" value="" style="verticalLabelPosition=bottom;shadow=0;dashed=0;align=center;html=1;verticalAlign=top;strokeWidth=1;shape=mxgraph.mockup.graphics.simpleIcon;strokeColor=#999999;" vertex="1" parent="1">
          <mxGeometry x="140" y="680" width="170" height="150" as="geometry" />
        </mxCell>
        <mxCell id="iUBv5-mRjrPnGJeJ_ugk-30" value="&lt;h1&gt;&lt;br&gt;&lt;/h1&gt;&lt;p&gt;Lorem ipsum dolor sit amet, consectetur adipisicing elit, sed do eiusmod tempor incididunt ut labore et dolore magna aliqua.&lt;/p&gt;" style="text;html=1;strokeColor=none;fillColor=none;spacing=5;spacingTop=-20;whiteSpace=wrap;overflow=hidden;rounded=0;" vertex="1" parent="1">
          <mxGeometry x="155" y="550" width="140" height="110" as="geometry" />
        </mxCell>
        <mxCell id="iUBv5-mRjrPnGJeJ_ugk-31" value="&lt;h1&gt;&lt;br&gt;&lt;/h1&gt;&lt;p&gt;Lorem ipsum dolor sit amet, consectetur adipisicing elit, sed do eiusmod tempor incididunt ut labore et dolore magna aliqua.&lt;/p&gt;" style="text;html=1;strokeColor=none;fillColor=none;spacing=5;spacingTop=-20;whiteSpace=wrap;overflow=hidden;rounded=0;" vertex="1" parent="1">
          <mxGeometry x="370" y="550" width="140" height="110" as="geometry" />
        </mxCell>
        <mxCell id="iUBv5-mRjrPnGJeJ_ugk-32" value="&lt;h1&gt;&lt;br&gt;&lt;/h1&gt;&lt;p&gt;Lorem ipsum dolor sit amet, consectetur adipisicing elit, sed do eiusmod tempor incididunt ut labore et dolore magna aliqua.&lt;/p&gt;" style="text;html=1;strokeColor=none;fillColor=none;spacing=5;spacingTop=-20;whiteSpace=wrap;overflow=hidden;rounded=0;" vertex="1" parent="1">
          <mxGeometry x="570" y="550" width="140" height="110" as="geometry" />
        </mxCell>
        <mxCell id="iUBv5-mRjrPnGJeJ_ugk-33" value="&lt;h1&gt;&lt;br&gt;&lt;/h1&gt;&lt;p&gt;Lorem ipsum dolor sit amet, consectetur adipisicing elit, sed do eiusmod tempor incididunt ut labore et dolore magna aliqua.&lt;/p&gt;" style="text;html=1;strokeColor=none;fillColor=none;spacing=5;spacingTop=-20;whiteSpace=wrap;overflow=hidden;rounded=0;" vertex="1" parent="1">
          <mxGeometry x="375" y="780" width="140" height="110" as="geometry" />
        </mxCell>
        <mxCell id="iUBv5-mRjrPnGJeJ_ugk-34" value="&lt;h1&gt;&lt;br&gt;&lt;/h1&gt;&lt;p&gt;Lorem ipsum dolor sit amet, consectetur adipisicing elit, sed do eiusmod tempor incididunt ut labore et dolore magna aliqua.&lt;/p&gt;" style="text;html=1;strokeColor=none;fillColor=none;spacing=5;spacingTop=-20;whiteSpace=wrap;overflow=hidden;rounded=0;" vertex="1" parent="1">
          <mxGeometry x="580" y="780" width="140" height="110" as="geometry" />
        </mxCell>
        <mxCell id="iUBv5-mRjrPnGJeJ_ugk-35" value="&lt;h1&gt;&lt;br&gt;&lt;/h1&gt;&lt;p&gt;Lorem ipsum dolor sit amet, consectetur adipisicing elit, sed do eiusmod tempor incididunt ut labore et dolore magna aliqua.&lt;/p&gt;" style="text;html=1;strokeColor=none;fillColor=none;spacing=5;spacingTop=-20;whiteSpace=wrap;overflow=hidden;rounded=0;" vertex="1" parent="1">
          <mxGeometry x="155" y="780" width="140" height="110" as="geometry" />
        </mxCell>
        <mxCell id="iUBv5-mRjrPnGJeJ_ugk-36" value="&lt;h1&gt;&lt;br&gt;&lt;/h1&gt;&lt;p&gt;Lorem ipsum dolor sit amet, consectetur adipisicing elit, sed do eiusmod tempor incididunt ut labore et dolore magna aliqua.&lt;/p&gt;" style="text;html=1;strokeColor=none;fillColor=none;spacing=5;spacingTop=-20;whiteSpace=wrap;overflow=hidden;rounded=0;" vertex="1" parent="1">
          <mxGeometry x="420" y="140" width="260" height="110" as="geometry" />
        </mxCell>
      </root>
    </mxGraphModel>
  </diagram>
</mxfile>
